<?xml version="1.0" encoding="utf-8"?>
<!-- Generator: Adobe Illustrator 18.1.0, SVG Export Plug-In . SVG Version: 6.00 Build 0)  -->
<svg version="1.1" id="Layer_1" xmlns="http://www.w3.org/2000/svg" xmlns:xlink="http://www.w3.org/1999/xlink" x="0px" y="0px"
	 viewBox="0 0 16 16" enable-background="new 0 0 16 16" xml:space="preserve">
<g>
	<circle opacity="0.68" fill="#808384" cx="8" cy="8" r="8"/>
	<path fill="#FFFFFF" d="M11.7,9C11.9,9,12,8.8,12,8.6l0-1.2C12,7.2,11.9,7,11.7,7L4.3,7C4.1,7,4,7.2,4,7.4l0,1.2C4,8.8,4.1,9,4.3,9
		L11.7,9z"/>
	<path fill="#FFFFFF" d="M7,11.7C7,11.9,7.2,12,7.4,12l1.2,0C8.8,12,9,11.9,9,11.7l0-7.4C9,4.1,8.8,4,8.6,4L7.4,4C7.2,4,7,4.1,7,4.3
		L7,11.7z"/>
</g>
</svg>
