<?xml version="1.0" encoding="utf-8"?>
<!-- Generator: Adobe Illustrator 18.1.0, SVG Export Plug-In . SVG Version: 6.00 Build 0)  -->
<svg version="1.1" id="Layer_1" xmlns="http://www.w3.org/2000/svg" xmlns:xlink="http://www.w3.org/1999/xlink" x="0px" y="0px"
	 viewBox="0 0 42 42" enable-background="new 0 0 42 42" xml:space="preserve">
<g>
	<g>
		<path fill="#FFFFFF" d="M2,41.5c-0.8,0-1.5-0.7-1.5-1.5V2c0-0.8,0.7-1.5,1.5-1.5h38c0.8,0,1.5,0.7,1.5,1.5v38
			c0,0.8-0.7,1.5-1.5,1.5H2z"/>
		<path fill="#AAAEAF" d="M40,1c0.6,0,1,0.4,1,1v38c0,0.6-0.4,1-1,1H2c-0.6,0-1-0.4-1-1V2c0-0.6,0.4-1,1-1H40 M40,0H2
			C0.9,0,0,0.9,0,2v38c0,1.1,0.9,2,2,2h38c1.1,0,2-0.9,2-2V2C42,0.9,41.1,0,40,0L40,0z"/>
	</g>
	<path id="male_15_" fill="#4A4748" d="M38.2,31.9c-1.1-1-10.8-4.3-12.6-6.1c-0.6-0.6-0.8-1.6-0.3-2.5c0.8-1.4,1.7-3.2,1.7-4.9
		c0.9-0.4,1.3-2.1,1.4-2.9c0.1-0.9-0.7-1.5-0.7-1.5c0.4-1.3,0.7-2.1,0.7-3.7c0.1-2-3.5-6.1-4.5-5.2c-0.5-0.7-1.9-1.3-3.3-1.5
		c-1.4-0.2-6.2,3.1-6.8,4.3s0.1,6.1,0.1,6.1s-0.7,0.8-0.5,1.5c0.1,0.8,0.1,2.2,1.2,2.9c0.2,1,1.1,4.2,2,5.6c-0.6,1.3-1.6,3-3.4,3.6
		c-2,0.7-8.4,2.5-10.2,4.3c-0.7,0.6-1,3.5-1.1,5.6c0,1.2,1,2.2,2.2,2.2h33.3c1.2,0,2.2-1,2.2-2.2C39.4,35.5,39.1,32.7,38.2,31.9z"/>
</g>
</svg>
