<?xml version="1.0" encoding="utf-8"?>
<!-- Generator: Adobe Illustrator 18.1.0, SVG Export Plug-In . SVG Version: 6.00 Build 0)  -->
<svg version="1.1" id="Layer_1" xmlns="http://www.w3.org/2000/svg" xmlns:xlink="http://www.w3.org/1999/xlink" x="0px" y="0px"
	 viewBox="0 0 16 16" enable-background="new 0 0 16 16" xml:space="preserve">
<g opacity="0.68">
	<g>
		<g>
			<g>
				<path fill="#808384" d="M8,10.3l5.5,5.5c0.3,0.3,0.7,0.3,0.9,0l1.4-1.4c0.3-0.3,0.3-0.7,0-0.9L10.3,8l5.5-5.5
					c0.3-0.3,0.3-0.7,0-0.9l-1.4-1.4c-0.3-0.3-0.7-0.3-0.9,0L8,5.7L2.5,0.2c-0.3-0.3-0.7-0.3-0.9,0L0.2,1.6c-0.3,0.3-0.3,0.7,0,0.9
					L5.7,8l-5.5,5.5c-0.3,0.3-0.3,0.7,0,0.9l1.4,1.4c0.3,0.3,0.7,0.3,0.9,0L8,10.3z"/>
			</g>
		</g>
	</g>
</g>
</svg>
